# xmcd CD database file
#
# Track frame offsets:
#	150
#	5691
#	26685
#	51664
#	76611
#	93008
#	116769
#	137415
#	157044
#	177228
#
# Disc length: 2706 seconds
#
# Revision: 5
# Processed by: cddbd v1.5.2PL0 Copyright (c) Steve Scherf et al.
# Submitted via: CDex 1.70beta2
#
DISCID=770a900a
DTITLE=Alstroemeria Records - Trois Noir
DYEAR=2008
DGENRE=東方アレンジ
TTITLE0=showdown
TTITLE1=For Lovers not Fighters
TTITLE2=Flight on tears
TTITLE3=光の都
TTITLE4=Underground Bridge
TTITLE5=Nuclear Fusion
TTITLE6=Last Remote
TTITLE7=Bad Apple!! (REDALiCE Remix)
TTITLE8=Gallardo
TTITLE9=For Lovers not Fighters (Tsukasa Remix)
EXTD=YEAR: 2008
EXTT0=
EXTT1=
EXTT2=
EXTT3=
EXTT4=
EXTT5=
EXTT6=
EXTT7=
EXTT8=
EXTT9=
PLAYORDER=
